<svg version="1.1" xmlns="http://www.w3.org/2000/svg" xmlns:xlink="http://www.w3.org/1999/xlink" width="296" height="296" viewBox="0,0,296,296"><g transform="translate(-92,-32)"><g data-paper-data="{&quot;isPaintingLayer&quot;:true}" fill-rule="nonzero" stroke="none" stroke-width="0" stroke-linecap="butt" stroke-linejoin="miter" stroke-miterlimit="10" stroke-dasharray="" stroke-dashoffset="0" style="mix-blend-mode: normal"><g><g><g><g><g><g><path d="M92,69v-37h37v37z" fill="#9966ff"/><path d="M129,69v-37h37v37z" fill="#642cd4"/></g><g><path d="M166,69v-37h37v37z" fill="#9966ff"/><path d="M203,69v-37h37v37z" fill="#642cd4"/></g></g><g><g><path d="M240,69v-37h37v37z" fill="#9966ff"/><path d="M277,69v-37h37v37z" fill="#642cd4"/></g><g><path d="M314,69v-37h37v37z" fill="#9966ff"/><path d="M351,69v-37h37v37z" fill="#642cd4"/></g></g></g><g data-paper-data="{&quot;index&quot;:null}"><g><g><path d="M351,106v-37h37v37z" fill="#9966ff"/><path d="M314,106v-37h37v37z" fill="#642cd4"/></g><g><path d="M277,106v-37h37v37z" fill="#9966ff"/><path d="M240,106v-37h37v37z" fill="#642cd4"/></g></g><g><g><path d="M203,106v-37h37v37z" fill="#9966ff"/><path d="M166,106v-37h37v37z" fill="#642cd4"/></g><g><path d="M129,106v-37h37v37z" fill="#9966ff"/><path d="M92,106v-37h37v37z" fill="#642cd4"/></g></g></g></g><g><g><g><g><path d="M92,143v-37h37v37z" fill="#9966ff"/><path d="M129,143v-37h37v37z" fill="#642cd4"/></g><g><path d="M166,143v-37h37v37z" fill="#9966ff"/><path d="M203,143v-37h37v37z" fill="#642cd4"/></g></g><g><g><path d="M240,143v-37h37v37z" fill="#9966ff"/><path d="M277,143v-37h37v37z" fill="#642cd4"/></g><g><path d="M314,143v-37h37v37z" fill="#9966ff"/><path d="M351,143v-37h37v37z" fill="#642cd4"/></g></g></g><g data-paper-data="{&quot;index&quot;:null}"><g><g><path d="M351,180v-37h37v37z" fill="#9966ff"/><path d="M314,180v-37h37v37z" fill="#642cd4"/></g><g><path d="M277,180v-37h37v37z" fill="#9966ff"/><path d="M240,180v-37h37v37z" fill="#642cd4"/></g></g><g><g><path d="M203,180v-37h37v37z" fill="#9966ff"/><path d="M166,180v-37h37v37z" fill="#642cd4"/></g><g><path d="M129,180v-37h37v37z" fill="#9966ff"/><path d="M92,180v-37h37v37z" fill="#642cd4"/></g></g></g></g></g><g><g><g><g><g><path d="M92,217v-37h37v37z" fill="#9966ff"/><path d="M129,217v-37h37v37z" fill="#642cd4"/></g><g><path d="M166,217v-37h37v37z" fill="#9966ff"/><path d="M203,217v-37h37v37z" fill="#642cd4"/></g></g><g><g><path d="M240,217v-37h37v37z" fill="#9966ff"/><path d="M277,217v-37h37v37z" fill="#642cd4"/></g><g><path d="M314,217v-37h37v37z" fill="#9966ff"/><path d="M351,217v-37h37v37z" fill="#642cd4"/></g></g></g><g data-paper-data="{&quot;index&quot;:null}"><g><g><path d="M351,254v-37h37v37z" fill="#9966ff"/><path d="M314,254v-37h37v37z" fill="#642cd4"/></g><g><path d="M277,254v-37h37v37z" fill="#9966ff"/><path d="M240,254v-37h37v37z" fill="#642cd4"/></g></g><g><g><path d="M203,254v-37h37v37z" fill="#9966ff"/><path d="M166,254v-37h37v37z" fill="#642cd4"/></g><g><path d="M129,254v-37h37v37z" fill="#9966ff"/><path d="M92,254v-37h37v37z" fill="#642cd4"/></g></g></g></g><g><g><g><g><path d="M92,291v-37h37v37z" fill="#9966ff"/><path d="M129,291v-37h37v37z" fill="#642cd4"/></g><g><path d="M166,291v-37h37v37z" fill="#9966ff"/><path d="M203,291v-37h37v37z" fill="#642cd4"/></g></g><g><g><path d="M240,291v-37h37v37z" fill="#9966ff"/><path d="M277,291v-37h37v37z" fill="#642cd4"/></g><g><path d="M314,291v-37h37v37z" fill="#9966ff"/><path d="M351,291v-37h37v37z" fill="#642cd4"/></g></g></g><g data-paper-data="{&quot;index&quot;:null}"><g><g><path d="M351,328v-37h37v37z" fill="#9966ff"/><path d="M314,328v-37h37v37z" fill="#642cd4"/></g><g><path d="M277,328v-37h37v37z" fill="#9966ff"/><path d="M240,328v-37h37v37z" fill="#642cd4"/></g></g><g><g><path d="M203,328v-37h37v37z" fill="#9966ff"/><path d="M166,328v-37h37v37z" fill="#642cd4"/></g><g><path d="M129,328v-37h37v37z" fill="#9966ff"/><path d="M92,328v-37h37v37z" fill="#642cd4"/></g></g></g></g></g></g></g></g></svg>